<mxfile host="app.diagrams.net" modified="2020-07-30T07:51:58.008Z" agent="5.0 (Macintosh)" etag="w3tOrdfwvuQaU75-kDa0" version="13.5.5" type="github" pages="2">
  <diagram id="NpTB6iebM1gEKICk_4uf" name="Layers">
    <mxGraphModel dx="786" dy="523" grid="1" gridSize="10" guides="1" tooltips="1" connect="1" arrows="1" fold="1" page="1" pageScale="1" pageWidth="1600" pageHeight="1200" math="1" shadow="0">
      <root>
        <mxCell id="0" />
        <mxCell id="1" style="" parent="0" />
        <mxCell id="jDUbfOW1Vs5yL3JEmUPx-19" value="" style="group" parent="1" vertex="1" connectable="0">
          <mxGeometry x="60" y="70" width="170" height="240" as="geometry" />
        </mxCell>
        <mxCell id="jDUbfOW1Vs5yL3JEmUPx-4" value="Presentation Layer" style="shape=folder;fontStyle=1;spacingTop=10;tabWidth=40;tabHeight=14;tabPosition=left;html=1;verticalAlign=top;" parent="jDUbfOW1Vs5yL3JEmUPx-19" vertex="1">
          <mxGeometry width="170" height="240" as="geometry" />
        </mxCell>
        <mxCell id="jDUbfOW1Vs5yL3JEmUPx-3" value="Errors" style="shape=folder;fontStyle=1;spacingTop=10;tabWidth=40;tabHeight=14;tabPosition=left;html=1;fontSize=10;" parent="jDUbfOW1Vs5yL3JEmUPx-19" vertex="1">
          <mxGeometry x="10" y="40" width="70" height="50" as="geometry" />
        </mxCell>
        <mxCell id="jDUbfOW1Vs5yL3JEmUPx-13" value="Utils" style="shape=folder;fontStyle=1;spacingTop=10;tabWidth=40;tabHeight=14;tabPosition=left;html=1;fontSize=10;" parent="jDUbfOW1Vs5yL3JEmUPx-19" vertex="1">
          <mxGeometry x="90" y="40" width="70" height="50" as="geometry" />
        </mxCell>
        <mxCell id="jDUbfOW1Vs5yL3JEmUPx-14" value="Coordinators" style="shape=folder;fontStyle=1;spacingTop=10;tabWidth=40;tabHeight=14;tabPosition=left;html=1;fontSize=10;" parent="jDUbfOW1Vs5yL3JEmUPx-19" vertex="1">
          <mxGeometry x="90" y="100" width="70" height="50" as="geometry" />
        </mxCell>
        <mxCell id="jDUbfOW1Vs5yL3JEmUPx-15" value="Modules" style="shape=folder;fontStyle=1;spacingTop=10;tabWidth=40;tabHeight=14;tabPosition=left;html=1;fontSize=10;" parent="jDUbfOW1Vs5yL3JEmUPx-19" vertex="1">
          <mxGeometry x="10" y="100" width="70" height="50" as="geometry" />
        </mxCell>
        <mxCell id="jDUbfOW1Vs5yL3JEmUPx-16" value="Common" style="shape=folder;fontStyle=1;spacingTop=10;tabWidth=40;tabHeight=14;tabPosition=left;html=1;fontSize=10;" parent="jDUbfOW1Vs5yL3JEmUPx-19" vertex="1">
          <mxGeometry x="10" y="160" width="70" height="50" as="geometry" />
        </mxCell>
        <mxCell id="jrMBMZ2a1nPnPia24iQJ-3" value="" style="group" parent="1" vertex="1" connectable="0">
          <mxGeometry x="270" y="60" width="210" height="250" as="geometry" />
        </mxCell>
        <mxCell id="jDUbfOW1Vs5yL3JEmUPx-5" value="Application Layer" style="shape=folder;fontStyle=1;spacingTop=10;tabWidth=40;tabHeight=14;tabPosition=left;html=1;verticalAlign=top;" parent="jrMBMZ2a1nPnPia24iQJ-3" vertex="1">
          <mxGeometry width="210" height="250" as="geometry" />
        </mxCell>
        <object label="Managers" id="jDUbfOW1Vs5yL3JEmUPx-6">
          <mxCell style="shape=folder;fontStyle=1;spacingTop=10;tabWidth=40;tabHeight=14;tabPosition=left;html=1;fontSize=10;" parent="jrMBMZ2a1nPnPia24iQJ-3" vertex="1">
            <mxGeometry x="20" y="50" width="70" height="50" as="geometry" />
          </mxCell>
        </object>
        <mxCell id="jDUbfOW1Vs5yL3JEmUPx-8" value="Logger" style="shape=folder;fontStyle=1;spacingTop=10;tabWidth=40;tabHeight=14;tabPosition=left;html=1;fontSize=10;" parent="jrMBMZ2a1nPnPia24iQJ-3" vertex="1">
          <mxGeometry x="100" y="50" width="70" height="50" as="geometry" />
        </mxCell>
        <mxCell id="jDUbfOW1Vs5yL3JEmUPx-10" value="Enviroment" style="shape=folder;fontStyle=1;spacingTop=10;tabWidth=40;tabHeight=14;tabPosition=left;html=1;fontSize=10;" parent="jrMBMZ2a1nPnPia24iQJ-3" vertex="1">
          <mxGeometry x="100" y="110" width="70" height="50" as="geometry" />
        </mxCell>
        <mxCell id="jDUbfOW1Vs5yL3JEmUPx-11" value="Configurator" style="shape=folder;fontStyle=1;spacingTop=10;tabWidth=40;tabHeight=14;tabPosition=left;html=1;fontSize=10;" parent="jrMBMZ2a1nPnPia24iQJ-3" vertex="1">
          <mxGeometry x="20" y="110" width="70" height="50" as="geometry" />
        </mxCell>
        <mxCell id="jrMBMZ2a1nPnPia24iQJ-2" value="DI" style="shape=folder;fontStyle=1;spacingTop=10;tabWidth=40;tabHeight=14;tabPosition=left;html=1;fontSize=10;" parent="jrMBMZ2a1nPnPia24iQJ-3" vertex="1">
          <mxGeometry x="20" y="170" width="70" height="50" as="geometry" />
        </mxCell>
      </root>
    </mxGraphModel>
  </diagram>
  <diagram id="PJrnMaEzaDbJfa9p-2CP" name="flow 2FA">
    <mxGraphModel dx="786" dy="523" grid="1" gridSize="10" guides="1" tooltips="1" connect="1" arrows="1" fold="1" page="1" pageScale="1" pageWidth="1600" pageHeight="1200" math="0" shadow="0">
      <root>
        <mxCell id="OQwy3TBt10_PDh8Vdh6v-0" />
        <mxCell id="OQwy3TBt10_PDh8Vdh6v-1" parent="OQwy3TBt10_PDh8Vdh6v-0" />
        <mxCell id="sm5o358CMD_rc8zNudJn-1" style="edgeStyle=orthogonalEdgeStyle;rounded=0;orthogonalLoop=1;jettySize=auto;html=1;entryX=0.5;entryY=0;entryDx=0;entryDy=0;" edge="1" parent="OQwy3TBt10_PDh8Vdh6v-1" source="sm5o358CMD_rc8zNudJn-0" target="sm5o358CMD_rc8zNudJn-2">
          <mxGeometry relative="1" as="geometry">
            <mxPoint x="410" y="180" as="targetPoint" />
          </mxGeometry>
        </mxCell>
        <mxCell id="sm5o358CMD_rc8zNudJn-0" value="Download Authecator" style="rounded=0;whiteSpace=wrap;html=1;" vertex="1" parent="OQwy3TBt10_PDh8Vdh6v-1">
          <mxGeometry x="330" y="50" width="160" height="60" as="geometry" />
        </mxCell>
        <mxCell id="sm5o358CMD_rc8zNudJn-4" style="edgeStyle=orthogonalEdgeStyle;rounded=0;orthogonalLoop=1;jettySize=auto;html=1;entryX=0.5;entryY=0;entryDx=0;entryDy=0;" edge="1" parent="OQwy3TBt10_PDh8Vdh6v-1" source="sm5o358CMD_rc8zNudJn-2" target="sm5o358CMD_rc8zNudJn-3">
          <mxGeometry relative="1" as="geometry" />
        </mxCell>
        <mxCell id="sm5o358CMD_rc8zNudJn-2" value="Scan QR" style="rounded=0;whiteSpace=wrap;html=1;" vertex="1" parent="OQwy3TBt10_PDh8Vdh6v-1">
          <mxGeometry x="330" y="140" width="160" height="60" as="geometry" />
        </mxCell>
        <mxCell id="sm5o358CMD_rc8zNudJn-6" value="" style="edgeStyle=orthogonalEdgeStyle;rounded=0;orthogonalLoop=1;jettySize=auto;html=1;" edge="1" parent="OQwy3TBt10_PDh8Vdh6v-1" source="sm5o358CMD_rc8zNudJn-3" target="sm5o358CMD_rc8zNudJn-5">
          <mxGeometry relative="1" as="geometry" />
        </mxCell>
        <mxCell id="sm5o358CMD_rc8zNudJn-3" value="Ввод кода (модалка???)" style="rounded=0;whiteSpace=wrap;html=1;" vertex="1" parent="OQwy3TBt10_PDh8Vdh6v-1">
          <mxGeometry x="330" y="240" width="160" height="60" as="geometry" />
        </mxCell>
        <mxCell id="sm5o358CMD_rc8zNudJn-5" value="Открывается модалка с Recovery Codes" style="whiteSpace=wrap;html=1;rounded=0;" vertex="1" parent="OQwy3TBt10_PDh8Vdh6v-1">
          <mxGeometry x="330" y="330" width="160" height="60" as="geometry" />
        </mxCell>
      </root>
    </mxGraphModel>
  </diagram>
</mxfile>
